<?xml version="1.0" encoding="UTF-8"?>
<svg width="320px" height="568px" viewBox="0 0 320 568" version="1.1" xmlns="http://www.w3.org/2000/svg" xmlns:xlink="http://www.w3.org/1999/xlink">
    <!-- Generator: Sketch 53 (72520) - https://sketchapp.com -->
    <title>bg-menu-fiesta</title>
    <desc>Created with Sketch.</desc>
    <g id="bg-menu-fiesta" stroke="none" stroke-width="1" fill="none" fill-rule="evenodd">
        <g>
            <polygon id="Fill-1" fill="#004481" fill-rule="nonzero" points="0 568 320 568 320 0 0 0"></polygon>
            <polygon id="Fill-2" fill="#004481" fill-rule="nonzero" opacity="0.1" style="mix-blend-mode: multiply;" points="320 0 0 568 320 568"></polygon>
            <polygon id="Fill-6" fill="#004481" fill-rule="nonzero" opacity="0.1" style="mix-blend-mode: multiply;" points="0 568 320 382.220512 320 568"></polygon>
            <polygon id="Fill-8" fill="#004481" fill-rule="nonzero" opacity="0.1" style="mix-blend-mode: multiply;" points="320 567.998314 0.00266666667 8.87500003e-05 320 8.87500003e-05"></polygon>
            <polygon id="Fill-10" fill="#004481" fill-rule="nonzero" opacity="0.1" style="mix-blend-mode: multiply;" points="0 568 320 520.076775 320 568"></polygon>
            <rect id="Rectangle" fill="#004481" x="0" y="0" width="320" height="568"></rect>
            <polyline id="Rectangle-2-Copy-37" fill="#FADE8E" fill-rule="nonzero" opacity="0.52891791" points="218.740461 18.8471074 227.905119 2.31362642 230.111057 7.69284691 222.708833 21.0468123 218.740461 18.8471074"></polyline>
            <polyline id="Rectangle-2-Copy-17" fill="#E5D5A6" fill-rule="nonzero" points="286 551.50772 301.856158 528 304.449229 536.326517 291.642332 555.313522 286 551.50772"></polyline>
            <polyline id="Rectangle-2-Copy-25" fill="#E5D5A6" fill-rule="nonzero" points="27.3425576 48.2813047 43.1987151 24.7735844 45.7917865 33.1001011 32.98489 52.087106 27.3425576 48.2813047"></polyline>
            <polyline id="Rectangle-2-Copy-31" fill="#68CCCC" fill-rule="nonzero" opacity="0.52891791" points="68.3563939 32.321189 93.8420893 19.8909849 91.9244966 28.3984955 71.3398965 38.4382758 68.3563939 32.321189"></polyline>
            <g id="Group-5-Copy-2" opacity="0.505538713" transform="translate(44.919916, 130.636897)" fill-rule="nonzero">
                <polygon id="Rectangle-2" fill="#68CCCC" transform="translate(195.546451, 9.894746) rotate(-26.000000) translate(-195.546451, -9.894746) " points="181.368734 6.49180488 209.724168 6.49180488 204.2712 13.2976875 181.368734 13.2976875"></polygon>
                <polygon id="Rectangle-2" fill="#49A5E6" transform="translate(254.815366, 34.494195) rotate(25.000000) translate(-254.815366, -34.494195) " points="248.261516 32.9211376 261.369216 32.9211376 258.848505 36.0672532 248.261516 36.0672532"></polygon>
                <polygon id="Rectangle-2" fill="#E5D5A6" transform="translate(157.449517, 52.579288) rotate(25.000000) translate(-157.449517, -52.579288) " points="147.997706 50.3106608 166.901329 50.3106608 163.266016 54.8479159 147.997706 54.8479159"></polygon>
                <polygon id="Rectangle-2" fill="#E5E5E5" transform="translate(138.525673, 119.411262) rotate(-22.000000) translate(-138.525673, -119.411262) " points="129.073862 117.142634 147.977484 117.142634 144.342172 121.679889 129.073862 121.679889"></polygon>
                <polygon id="Rectangle-2" fill="#FADE8E" transform="translate(9.525014, 72.518955) rotate(25.000000) translate(-9.525014, -72.518955) " points="0.0732024378 70.2503271 18.9768252 70.2503271 15.3415131 74.7875822 0.0732024378 74.7875822"></polygon>
                <polygon id="Rectangle-2" fill="#FADE8E" transform="translate(60.357244, 114.262825) rotate(119.000000) translate(-60.357244, -114.262825) " points="50.9054322 111.994197 69.809055 111.994197 66.1737429 116.531452 50.9054322 116.531452"></polygon>
                <polygon id="Rectangle-2" fill="#E5E5E5" transform="translate(37.923673, 27.050943) rotate(-6.000000) translate(-37.923673, -27.050943) " points="28.4718619 24.7823151 47.3754847 24.7823151 43.7401726 29.3195702 28.4718619 29.3195702"></polygon>
            </g>
            <polyline id="Rectangle-2-Copy-20" fill="#68CCCC" fill-rule="nonzero" points="155.597675 100.942138 173.824197 122.66366 165.105488 122.861182 150.384067 105.316875 155.597675 100.942138"></polyline>
            <polyline id="Rectangle-2-Copy-21" fill="#2A86CA" fill-rule="nonzero" points="258.706751 59.9283013 292.971752 75.9063337 282.547275 81.0579344 254.871697 68.1526005 258.706751 59.9283013"></polyline>
            <polyline id="Rectangle-2-Copy-22" fill="#2A86CA" fill-rule="nonzero" points="52.9175269 90 70.0500274 97.9890162 64.8377889 100.564817 51 94.1121496 52.9175269 90"></polyline>
            <polyline id="Rectangle-2-Copy-23" fill="#5DC0FF" fill-rule="nonzero" points="115.17608 190.78197 140.874831 202.765494 133.056473 206.629195 112.29979 196.950194 115.17608 190.78197"></polyline>
            <polyline id="Rectangle-2-Copy-24" fill="#FADE8E" fill-rule="nonzero" opacity="0.52891791" points="173.820545 79.3913421 182.985203 62.8578611 185.191141 68.2370815 177.788917 81.591047 173.820545 79.3913421"></polyline>
            <polyline id="Rectangle-2-Copy" fill="#68CCCC" fill-rule="nonzero" points="222.024165 382.179873 255.405982 399.929299 244.726177 404.528265 217.763941 390.19219 222.024165 382.179873"></polyline>
            <polyline id="Rectangle-2-Copy-2" fill="#2A86CA" fill-rule="nonzero" opacity="0.52891791" points="142.571907 410.89543 169.043986 400.733751 166.392212 409.041759 145.010918 417.249269 142.571907 410.89543"></polyline>
            <polyline id="Rectangle-2-Copy-5" fill="#2A86CA" fill-rule="nonzero" opacity="0.52891791" points="180.263825 443.700627 195.935639 454.271399 190.384627 456.000113 177.726624 447.462182 180.263825 443.700627"></polyline>
            <polyline id="Rectangle-2-Copy-6" fill="#68CCCC" fill-rule="nonzero" opacity="0.52891791" points="111.765548 459.324946 124.414541 473.373075 118.610204 473.707528 108.39371 462.360962 111.765548 459.324946"></polyline>
            <polyline id="Rectangle-2-Copy-9" fill="#E5E5E5" fill-rule="nonzero" opacity="0.52891791" points="177.726624 522.074415 193.757806 512.057021 193.079265 517.831254 180.131003 525.922226 177.726624 522.074415"></polyline>
            <polyline id="Rectangle-2-Copy-12" fill="#68CCCC" fill-rule="nonzero" opacity="0.52891791" points="68.3563939 555.735863 93.8420893 543.305658 91.9244966 551.813169 71.3398965 561.852949 68.3563939 555.735863"></polyline>
            <polyline id="Rectangle-2-Copy-14" fill="#E5D5A6" fill-rule="nonzero" points="84.1455533 372.414674 97.9707878 385.306913 92.2176884 386.145975 81.0511528 375.733012 84.1455533 372.414674"></polyline>
            <polyline id="Rectangle-2-Copy-34" fill="#5DC0FF" fill-rule="nonzero" opacity="0.52891791" points="51.3631965 283.08176 67.03501 293.652531 61.4839989 295.381246 48.8259957 286.843315 51.3631965 283.08176"></polyline>
            <polyline id="Rectangle-2-Copy-35" fill="#FADE8E" fill-rule="nonzero" points="259.871385 216.247593 244.414082 244.133306 240.6935 235.060601 253.178245 212.537525 259.871385 216.247593"></polyline>
            <polyline id="Rectangle-2-Copy-36" fill="#E5D5A6" fill-rule="nonzero" points="155.266666 354.266919 181.738745 344.10524 179.08697 352.413248 157.705676 360.620757 155.266666 354.266919"></polyline>
            <polyline id="Rectangle-2-Copy-7" fill="#5DC0FF" fill-rule="nonzero" opacity="0.52891791" points="9.76519913 494.147428 27.8428235 488.620543 25.6929223 494.022404 11.0917641 498.486426 9.76519913 494.147428"></polyline>
            <polyline id="Rectangle-2-Copy-19" fill="#2A86CA" fill-rule="nonzero" points="1.91752686 429.052829 19.0500274 437.041845 13.8377889 439.617645 0 433.164978 1.91752686 429.052829"></polyline>
        </g>
    </g>
</svg>